<svg width="510" height="510" version="1.1" xmlns="http://www.w3.org/2000/svg" desc="Created with imagetracer.js version 1.2.6" ><path fill="rgb(0,0,0)" stroke="rgb(0,0,0)" stroke-width="1" opacity="0" d="M 16 16 L 494 16 L 494 494 L 409 494 L 409 255.5 L 297 144.5 L 297 493.5 L 296.5 494 L 270 494 L 269.5 276 L 241 304.5 L 241 494 L 214.5 494 L 214 493.5 L 214 311.5 L 270 255.5 L 270 96.5 L 214.5 41 L 213 41 L 213 311.5 L 186.5 338 L 186 41 L 184.5 41 L 129 96.5 L 129 395.5 L 101 423.5 L 101 494 L 16.5 494 L 16 493.5 L 16 16 Z " /><path fill="rgb(0,0,0)" stroke="rgb(0,0,0)" stroke-width="1" opacity="0" d="M 325.5 212 L 380 266.5 L 380 494 L 325.5 494 L 325 493.5 L 325.5 212 Z " /><path fill="rgb(0,0,0)" stroke="rgb(0,0,0)" stroke-width="1" opacity="0" d="M 184.5 341 L 185 494 L 130 494 L 130 395.5 L 184.5 341 Z " /><path fill="rgb(0,0,0)" stroke="rgb(0,0,0)" stroke-width="1" opacity="0.7568627450980392" d="M 185.5 41 L 186.5 338 L 213 312.5 L 186.5 339 L 185 339 L 185.5 41 Z " /><path fill="rgb(0,0,0)" stroke="rgb(0,0,0)" stroke-width="1" opacity="0.7568627450980392" d="M 213.5 41 L 214 310.5 L 213 310.5 L 213.5 41 Z " /><path fill="rgb(0,0,0)" stroke="rgb(0,0,0)" stroke-width="1" opacity="0.7568627450980392" d="M 324 211 L 325.5 211 L 381 266.5 L 325 212.5 L 324.5 495 L 324 211 Z " /><path fill="rgb(0,0,0)" stroke="rgb(0,0,0)" stroke-width="1" opacity="0.7568627450980392" d="M 128.5 396 L 130 396.5 L 130 494.5 L 129 494.5 L 128.5 397 L 102 422.5 L 128.5 396 Z " /><path fill="rgb(0,0,0)" stroke="rgb(0,0,0)" stroke-width="1" opacity="1" d="M 0 0 L 510 0 L 510 510 L 0 510 L 0 0 Z M 15 15 L 15 495 L 16 495 L 102 495 L 102 424 L 129 397 L 129 495 L 186 495 L 186 340 L 185 340 L 131 394 L 130 97 L 185 43 L 185 339 L 187 339 L 213 314 L 213 495 L 214 495 L 242 495 L 242 304 L 269 277 L 269 495 L 297 495 L 297 495 L 297 146 L 408 256 L 408 495 L 495 495 L 495 15 L 15 15 Z M 324 211 L 324 495 L 381 495 L 381 495 L 381 267 L 326 211 L 324 211 Z " /><path fill="rgb(0,0,0)" stroke="rgb(0,0,0)" stroke-width="1" opacity="1" d="M 214.5 42 L 269 96.5 L 269 255.5 L 214 309.5 L 214.5 42 Z " /><path fill="rgb(0,0,0)" stroke="rgb(0,0,0)" stroke-width="1" opacity="0.6196078431372549" d="M 297.5 144 L 407.5 255 L 297.5 144 Z " /><path fill="rgb(0,0,0)" stroke="rgb(0,0,0)" stroke-width="1" opacity="0.6196078431372549" d="M 268.5 256 L 213.5 312 L 268.5 256 Z " /><path fill="rgb(0,0,0)" stroke="rgb(0,0,0)" stroke-width="1" opacity="0.6196078431372549" d="M 184.5 340 L 129.5 396 L 184.5 340 Z " /><path fill="rgb(0,0,0)" stroke="rgb(0,0,0)" stroke-width="1" opacity="0.49019607843137253" d="M 16.5 15 L 493.5 15 L 495 16.5 L 495 494.5 L 494.5 495 L 409.5 495 L 408 493.5 L 408 255.5 L 409 255.5 L 409 494 L 494 494 L 494 16 L 16 16 L 16 493.5 L 16.5 494 L 101 494 L 101.5 423 L 102 495 L 16.5 495 L 15 493.5 L 15 16.5 L 16.5 15 Z " /><path fill="rgb(0,0,0)" stroke="rgb(0,0,0)" stroke-width="1" opacity="0.49019607843137253" d="M 184.5 41 L 130 96.5 L 129.5 395 L 129 96.5 L 184.5 41 Z " /><path fill="rgb(0,0,0)" stroke="rgb(0,0,0)" stroke-width="1" opacity="0.49019607843137253" d="M 214.5 41 L 270 96.5 L 270 255.5 L 269 255.5 L 269 96.5 L 214.5 41 Z " /><path fill="rgb(0,0,0)" stroke="rgb(0,0,0)" stroke-width="1" opacity="0.49019607843137253" d="M 380.5 267 L 381 495 L 325 494.5 L 380 494 L 380.5 267 Z " /><path fill="rgb(0,0,0)" stroke="rgb(0,0,0)" stroke-width="1" opacity="0.49019607843137253" d="M 269.5 276 L 270 494 L 297 494.5 L 270.5 495 L 269 493.5 L 269.5 276 Z " /><path fill="rgb(0,0,0)" stroke="rgb(0,0,0)" stroke-width="1" opacity="0.49019607843137253" d="M 241.5 304 L 242 495 L 214.5 495 L 213 493.5 L 213.5 312 L 214 494 L 240.5 494 L 241 493.5 L 241.5 304 Z " /><path fill="rgb(0,0,0)" stroke="rgb(0,0,0)" stroke-width="1" opacity="0.49019607843137253" d="M 185.5 340 L 186 493.5 L 184.5 495 L 130.5 495 L 130.5 494 L 185 494 L 185.5 340 Z " /></svg>